#N canvas 400 28 511 438 12;
#X obj 216 22 notein 1;
#X obj 244 298 pack 0 0 0;
#X obj 244 347 *~;
#X obj 244 381 dac~;
#X obj 400 216 vsl 15 128 0 1 0 1 empty empty Main\\\ Volume 0 -9 0
10 #fcfcfc #000000 #000000 6700 1;
#X msg 303 221 stop;
#X obj 244 274 poly 16;
#X obj 244 322 clone -s 1 Stimme 16;
#X obj 60 54 Stimmungsmacher_in;
#X connect 0 0 8 0;
#X connect 0 1 6 1;
#X connect 1 0 7 0;
#X connect 2 0 3 0;
#X connect 2 0 3 1;
#X connect 4 0 2 1;
#X connect 5 0 6 0;
#X connect 6 0 1 0;
#X connect 6 1 1 1;
#X connect 6 2 1 2;
#X connect 7 0 2 0;
#X connect 8 0 6 0;
