#N canvas 904 29 811 533 12;
#X obj 52 27 inlet;
#X obj 52 61 unpack 0 0 0;
#X obj 52 101 mtof;
#X obj 52 149 *~;
#X obj 162 104 / 127;
#X obj 52 193 outlet~;
#X obj 52 125 osc~;
#X msg 99 98 0.25;
#X connect 0 0 1 0;
#X connect 1 0 2 0;
#X connect 1 0 7 0;
#X connect 1 1 4 0;
#X connect 2 0 6 0;
#X connect 3 0 5 0;
#X connect 4 0 3 1;
#X connect 6 0 3 0;
#X connect 7 0 6 1;
